<svg width="104" height="104" viewBox="0 0 104 104" fill="none" xmlns="http://www.w3.org/2000/svg">
<circle cx="52" cy="52" r="52" fill="#475A62"/>
<circle cx="52" cy="52" r="40" fill="#5A7580"/>
<path d="M45.536 49.992L50.208 50.056L50.528 36.488C51.1253 36.36 51.7227 36.296 52.32 36.296L54.432 36.488C54.944 39.2187 55.2 41.7147 55.2 43.976C55.2 46.2373 55.1787 48.3067 55.136 50.184L67.872 50.44C67.9573 50.8667 68 51.4853 68 52.296L67.872 54.216C65.1413 54.728 62.7093 54.984 60.576 54.984C58.4853 54.984 56.6293 54.9627 55.008 54.92L54.752 69C54.3253 69.0853 53.7067 69.128 52.896 69.128L50.848 69C50.336 66.2693 50.08 63.752 50.08 61.448C50.08 59.1013 50.1013 56.904 50.144 54.856L37.792 54.536C37.664 53.9387 37.6 53.3627 37.6 52.808L37.792 50.76C40.5227 50.248 43.104 49.992 45.536 49.992Z" fill="#27343A"/>
</svg>
