<svg width="21" height="1117" viewBox="0 0 21 1117" fill="none" xmlns="http://www.w3.org/2000/svg">
<rect x="0.5" y="0.5" width="20" height="1116" fill="#696547" stroke="#333333"/>
<circle cx="10.5" cy="14.5" r="4" fill="#9A9577" stroke="#333333"/>
<rect x="7.5" y="38.5" width="6" height="30" rx="3" fill="#39321F" stroke="#333333"/>
<rect x="7.5" y="77.5" width="6" height="30" rx="3" fill="#39321F" stroke="#333333"/>
<circle cx="10.5" cy="131.5" r="4" fill="#9A9577" stroke="#333333"/>
<rect x="7.5" y="155.5" width="6" height="30" rx="3" fill="#39321F" stroke="#333333"/>
<rect x="7.5" y="194.5" width="6" height="30" rx="3" fill="#39321F" stroke="#333333"/>
<rect x="7.5" y="233.5" width="6" height="30" rx="3" fill="#39321F" stroke="#333333"/>
<circle cx="10.5" cy="287.5" r="4" fill="#9A9577" stroke="#333333"/>
<rect x="7.5" y="311.5" width="6" height="30" rx="3" fill="#39321F" stroke="#333333"/>
<rect x="7.5" y="350.5" width="6" height="30" rx="3" fill="#39321F" stroke="#333333"/>
<rect x="7.5" y="389.5" width="6" height="30" rx="3" fill="#39321F" stroke="#333333"/>
<circle cx="10.5" cy="443.5" r="4" fill="#9A9577" stroke="#333333"/>
<rect x="7.5" y="467.5" width="6" height="30" rx="3" fill="#39321F" stroke="#333333"/>
<rect x="7.5" y="506.5" width="6" height="30" rx="3" fill="#39321F" stroke="#333333"/>
<rect x="7.5" y="545.5" width="6" height="30" rx="3" fill="#39321F" stroke="#333333"/>
<circle cx="10.5" cy="599.5" r="4" fill="#9A9577" stroke="#333333"/>
<rect x="7.5" y="623.5" width="6" height="30" rx="3" fill="#39321F" stroke="#333333"/>
<rect x="7.5" y="662.5" width="6" height="30" rx="3" fill="#39321F" stroke="#333333"/>
<rect x="7.5" y="701.5" width="6" height="30" rx="3" fill="#39321F" stroke="#333333"/>
<circle cx="10.5" cy="755.5" r="4" fill="#9A9577" stroke="#333333"/>
<rect x="7.5" y="779.5" width="6" height="30" rx="3" fill="#39321F" stroke="#333333"/>
<rect x="7.5" y="818.5" width="6" height="30" rx="3" fill="#39321F" stroke="#333333"/>
<rect x="7.5" y="857.5" width="6" height="30" rx="3" fill="#39321F" stroke="#333333"/>
<circle cx="10.5" cy="911.5" r="4" fill="#9A9577" stroke="#333333"/>
<rect x="7.5" y="935.5" width="6" height="30" rx="3" fill="#39321F" stroke="#333333"/>
<rect x="7.5" y="974.5" width="6" height="30" rx="3" fill="#39321F" stroke="#333333"/>
<rect x="7.5" y="1013.5" width="6" height="30" rx="3" fill="#39321F" stroke="#333333"/>
<circle cx="10.5" cy="1067.5" r="4" fill="#9A9577" stroke="#333333"/>
<rect x="7.5" y="1091.5" width="6" height="30" rx="3" fill="#39321F" stroke="#333333"/>
</svg>
