<svg width="39" height="45" viewBox="0 0 39 45" fill="none" xmlns="http://www.w3.org/2000/svg">
<g clip-path="url(#clip0_2210_715)">
<path d="M17.8368 0.0622719C3.93179 1.14516 -4.37271 16.551 2.40667 28.8328C9.63153 41.919 28.4893 42.3592 36.1246 29.4717C44.2229 15.8031 33.5277 -1.1589 17.8368 0.0622719ZM11.4582 32.3347L10.8726 31.1681C11.0847 30.9558 12.4347 32.0776 11.4582 32.3347ZM18.2628 33.8928L16.516 32.0406C16.3798 31.7134 16.7805 31.6472 16.8992 31.7524C16.9264 31.7757 16.9478 32.0815 17.0918 32.2334C17.547 32.7125 18.3232 33.1722 18.2628 33.8928ZM33.8622 27.5961C32.734 29.5944 31.3334 30.4455 30.1234 32.0348C29.923 32.2996 30.0708 32.7476 29.746 32.7242C30.0105 32.0367 28.7928 30.685 28.8239 30.2877C28.8336 30.1592 30.3121 28.5757 30.5338 28.3557C30.775 28.1161 31.2341 28.083 31.4987 27.7655C32.2107 26.9144 31.5084 26.5249 31.4773 25.8082C31.454 25.2609 31.7088 24.5656 31.6991 23.8566C31.6213 17.8189 24.5034 15.2325 20.605 19.5854C19.5526 20.7599 18.5546 23.2451 18.8931 24.7954C19.1071 25.7809 19.6615 25.2998 19.0429 26.4937C19.0429 26.93 18.9437 27.3818 19.2238 27.7753C19.4475 28.0888 20.391 28.5835 20.212 27.859C20.2821 27.7383 20.961 28.8952 21.1789 29.1269C21.6807 29.6664 22.1651 29.8826 22.739 30.2916C21.0816 30.9382 21.1127 33.5033 20.7917 35.0614L18.6539 27.2728C18.4866 26.0847 17.2805 26.0886 16.2728 25.8393C15.8254 25.7283 15.0648 25.9211 15.199 25.0233C15.2243 24.8499 17.6948 23.2548 18.0722 23.0795L17.6812 22.1154C17.7765 21.7687 18.8289 21.8408 18.8445 21.5272C18.8484 21.4591 18.187 20.6002 18.471 20.271C18.5313 20.2009 19.9436 19.8503 20.2101 19.6731L18.4593 18.1189L21.5699 16.7497L19.2413 15.4856L21.3773 13.4426L18.6558 13.0491L20.0156 10.1296L17.2941 10.9067L17.0976 7.40099C16.1892 7.25297 14.3256 9.54729 13.8918 9.54534C13.7361 9.22593 12.0398 7.06599 11.8492 7.20622C11.6974 7.66197 11.4037 10.2854 10.9738 10.3166L8.34763 9.35058L9.12576 12.2701L5.62421 12.4668C5.85959 13.1582 7.70957 14.6112 7.552 15.2695C7.47808 15.583 5.46664 16.6328 5.23515 17.1372C6.32452 17.2346 7.27383 17.7605 7.95468 18.5999L6.40817 20.3548C6.60464 20.7891 8.26399 20.9546 8.3418 21.0423C8.55189 21.2799 7.85936 22.8906 7.96052 22.9802C8.26399 23.0347 9.64321 22.9101 9.71129 22.9802C9.75798 23.0289 9.6685 23.6268 9.71129 23.8547C9.89026 24.8538 10.4739 23.8177 10.7832 23.8177C10.8532 23.8177 11.8336 24.3961 11.9912 24.4974C13.7322 25.629 9.686 25.9484 9.2308 26.4898C8.83785 26.9573 8.03639 31.3706 7.67067 31.3511C-0.155291 23.3054 1.41457 9.77906 11.4523 4.38214C26.2269 -3.56034 42.0889 13.0102 33.8603 27.5961H33.8622ZM9.89804 22.0122C9.5829 21.9791 9.49731 21.2643 9.44479 21.0092C9.36697 20.6294 9.26582 20.2652 9.31834 19.8717L9.89804 22.0122Z" fill="#E8D5AA"/>
</g>
<rect x="12.9661" y="32.0339" width="12.9661" height="12.9661" rx="6.48305" fill="#050404"/>
<path d="M23.2556 36.0852C23.2805 36.1456 23.2754 36.2107 23.2556 36.272C23.2132 36.4137 23.1509 36.4719 23.0426 36.5653C22.8453 36.735 21.767 37.487 21.5712 37.5486C21.502 37.5723 21.4301 37.5711 21.3606 37.5486C20.8704 37.4288 20.1452 36.8042 19.6468 36.566C19.6032 36.5451 19.571 36.5348 19.5259 36.5211C19.4657 36.4965 19.4065 36.5015 19.3454 36.5211C19.1156 36.5778 18.5086 36.9602 18.2725 37.1074C18.0364 37.2547 17.7371 37.3939 17.6938 37.7227C17.6652 37.941 17.6926 38.2517 17.6911 38.4827C17.698 38.7841 17.7082 39.0852 17.7212 39.3857C17.76 39.5541 17.7888 39.5843 17.9218 39.6918C18.1227 39.8537 19.0991 40.4456 19.3153 40.5066C19.386 40.529 19.4552 40.529 19.5259 40.5066C19.5508 40.4997 19.5866 40.5091 19.6128 40.4888L21.1492 39.5557C21.3594 39.5037 21.4003 39.5713 21.4509 39.7593C21.4752 39.82 21.471 39.8848 21.4509 39.9461C21.4133 40.081 21.3754 40.1507 21.2683 40.2398C20.7311 40.4907 20.1635 40.997 19.6363 41.2283C19.4603 41.3056 19.3803 41.3049 19.2046 41.2283C18.7523 41.0312 18.2569 40.6019 17.8018 40.3764C17.6093 40.2812 17.4787 40.246 17.273 40.3388C17.1034 40.4151 16.9048 40.5714 16.8489 40.756C16.8251 40.8189 16.83 40.879 16.8489 40.9428C16.9172 41.2037 17.0847 41.2601 17.2907 41.4039C17.9155 41.8405 18.5766 42.2256 19.1983 42.6675C19.4077 42.7662 19.534 42.7266 19.7265 42.6292C20.723 42.1238 21.6903 41.3594 22.6934 40.8432C22.8525 40.7314 22.9319 40.681 22.9852 40.4758C22.996 39.8353 23.0059 39.192 23.0152 38.5453C23.0667 38.3535 23.1094 38.36 23.3025 38.4195C23.4643 38.469 23.5882 38.6051 23.615 38.781C23.7046 39.3735 23.5515 40.1871 23.6174 40.8036C23.5789 41.1309 23.1443 41.3261 22.8907 41.4837C21.9156 42.0902 20.7883 42.8169 19.7866 43.3456C19.5999 43.4443 19.4552 43.5218 19.2335 43.4406C18.179 42.7207 17.057 42.0889 16.0094 41.3604C15.7992 41.214 15.5576 41.1128 15.5844 40.8024C15.5985 40.6383 15.7315 40.5141 15.8464 40.4185C16.2118 40.1143 16.6925 39.8851 17.0594 39.5725C17.0697 38.8159 17.0796 38.058 17.0895 37.2995C17.1292 37.1149 17.1608 37.0626 17.3082 36.9499L19.3021 35.776L19.608 35.7978C20.1223 36.0201 20.781 36.6413 21.3005 36.7702C21.3618 36.7895 21.4202 36.7951 21.481 36.7702C21.6939 36.7061 21.9848 36.4956 22.0524 36.272C22.0735 36.2182 22.0735 36.1702 22.0524 36.1164C21.9863 35.8975 21.8272 35.8206 21.659 35.6985C21.0996 35.2925 20.3079 34.7426 19.7157 34.4098C19.4919 34.284 19.3965 34.2697 19.1556 34.3783L16.0386 36.2583C15.9288 36.3511 15.9153 36.4181 15.8864 36.5523C15.8756 37.0579 15.8656 37.5664 15.8563 38.078C15.8217 38.2511 15.7805 38.3828 15.6124 38.4637C15.5155 38.5104 15.3008 38.5712 15.2608 38.4298L15.2542 36.1936C15.268 36.0488 15.366 35.9404 15.4674 35.8539C16.6904 35.2175 17.8929 34.256 19.1144 33.6507C19.4807 33.4691 19.5755 33.5843 19.8844 33.7681C20.9946 34.4275 22.0744 35.2193 23.1659 35.9134C23.1987 35.966 23.2348 36.027 23.2556 36.0852Z" fill="url(#paint0_linear_2210_715)"/>
<defs>
<linearGradient id="paint0_linear_2210_715" x1="16.1568" y1="35.1324" x2="22.9156" y2="41.6615" gradientUnits="userSpaceOnUse">
<stop stop-color="#1EC2E5"/>
<stop offset="1" stop-color="#9D86F0"/>
</linearGradient>
<clipPath id="clip0_2210_715">
<rect width="38.8983" height="38.8983" fill="white"/>
</clipPath>
</defs>
</svg>
