<svg width="710" height="59" viewBox="0 0 710 59" fill="none" xmlns="http://www.w3.org/2000/svg">
<path d="M0.5 58.5L0.500005 0.499968L641.849 0.500025L646.228 3.41897C646.995 4.14557 647.787 4.89458 648.555 5.46389C649.328 6.03708 650.166 6.50003 651 6.50003L670.176 6.50003L677.676 0.500028L709.5 0.50003L709.5 58.5L0.5 58.5Z" fill="#84683D" stroke="#333333"/>
<path d="M709 7.50003L1 7.49997" stroke="#333333"/>
<path d="M644.064 58.5L650.442 6.50003L669.5 6.50003L669.5 58.5L644.064 58.5Z" fill="#8F8260" stroke="#333333"/>
<path d="M68.541 58.5L73.1231 0.499975L86.5 0.499976L86.5 58.5L68.541 58.5Z" fill="#8F8260" stroke="#333333"/>
<path d="M67.457 0.499978L62.6338 58.5L48.5 58.5L48.5 0.499973L67.457 0.499978Z" fill="#8F8260" stroke="#333333"/>
</svg>
