<svg width="480" height="60" viewBox="0 0 480 60" fill="none" xmlns="http://www.w3.org/2000/svg">
<path d="M47.9629 0.5L53.832 4.74414L53.9629 4.83887H66.7871L66.918 4.74414L72.7871 0.5H478.625V59.1777H45.8877C45.8006 59.1776 45.6624 59.14 45.4619 59.0039C45.264 58.8695 45.0419 58.6645 44.7979 58.3945C44.308 57.8528 43.7914 57.1215 43.252 56.3555C42.7232 55.6047 42.1717 54.8184 41.6357 54.2227C41.367 53.9239 41.0864 53.6546 40.7979 53.457C40.5124 53.2617 40.1786 53.1094 39.8145 53.1094H26.7588L26.6094 53.2891L21.6973 59.1777H0.5V0.5H47.9629Z" fill="#84683D" stroke="#333333"/>
<path d="M0.549561 4.55176H478.325" stroke="#333333"/>
<path d="M44.2086 0.5L39.9029 53.1094H27.3677V0.5H44.2086Z" fill="#8F8260" stroke="#333333"/>
<path d="M49.541 58.8389L53.876 4.83887L66.5 4.83887L66.5 58.8389L49.541 58.8389Z" fill="#8F8260" stroke="#333333"/>
<path d="M432.585 0.5L429.493 59.1777H420.79V0.5H432.585Z" fill="#8F8260" stroke="#333333"/>
<path d="M433.641 59.178L436.895 0.500242L446.108 0.500244L446.108 59.178L433.641 59.178Z" fill="#8F8260" stroke="#333333"/>
</svg>
