<svg width="507" height="61" viewBox="0 0 507 61" fill="none" xmlns="http://www.w3.org/2000/svg">
<path d="M1.32324 1.16101V59.8387H458.521C458.629 59.8386 458.784 59.7945 458.998 59.6571C459.21 59.521 459.445 59.3147 459.703 59.0448C460.221 58.5027 460.766 57.7714 461.336 57.0057C461.895 56.2547 462.478 55.4693 463.044 54.8739C463.328 54.5752 463.623 54.3071 463.926 54.1112C464.226 53.917 464.568 53.7704 464.938 53.7704H478.482L478.483 54.2704V53.7704H478.709L478.858 53.9393L484.056 59.8387H506.5V1.16101H1.32324Z" fill="#84683D" stroke="#333333"/>
<path d="M506.287 5.21277H1.53611" stroke="#333333"/>
<path d="M460.135 1.16101L464.683 53.7704H477.983V1.16101H460.135Z" fill="#8F8260" stroke="#333333"/>
<path d="M49.8311 1.16101L53.0977 59.8387H62.3477V1.16101H49.8311Z" fill="#8F8260" stroke="#333333"/>
<path d="M48.7721 59.839L45.3326 1.16125L35.5435 1.16125L35.5435 59.839L48.7721 59.839Z" fill="#8F8260" stroke="#333333"/>
</svg>
