<svg width="507" height="61" viewBox="0 0 507 61" fill="none" xmlns="http://www.w3.org/2000/svg">
<path d="M505.677 60.5001L505.677 1.82235L48.4785 1.82227C48.3711 1.82238 48.2157 1.86653 48.002 2.00391C47.7904 2.14 47.5547 2.34634 47.2969 2.61622C46.7791 3.15835 46.2337 3.88962 45.6641 4.65528C45.1053 5.40628 44.5219 6.19172 43.9561 6.78712C43.6721 7.08587 43.3766 7.35391 43.0742 7.54981C42.7744 7.74405 42.4317 7.89063 42.0625 7.89063L28.5176 7.89063L28.5166 7.39063L28.5166 7.89063L28.291 7.89063L28.1416 7.72168L22.9443 1.82227L0.50001 1.82227L0.5 60.5L505.677 60.5001Z" fill="#84683D" stroke="#333333"/>
<path d="M0.536133 8.78723L505.287 8.78732" stroke="#333333"/>
<path d="M46.6877 59.839L42.1399 7.22962L28.8401 7.22961L28.8401 59.839L46.6877 59.839Z" fill="#8F8260" stroke="#333333"/>
<path d="M456.992 59.839L453.725 1.16126L444.475 1.16125L444.475 59.839L456.992 59.839Z" fill="#8F8260" stroke="#333333"/>
<path d="M458.051 1.16101L461.49 59.8387L471.279 59.8387L471.279 1.16101L458.051 1.16101Z" fill="#8F8260" stroke="#333333"/>
</svg>
